<svg width="512" height="512" viewBox="0 0 512 512" fill="none" xmlns="http://www.w3.org/2000/svg">
<g clip-path="url(#clip0_208_413)">
<mask id="mask0_208_413" style="mask-type:luminance" maskUnits="userSpaceOnUse" x="0" y="0" width="512" height="512">
<path fill-rule="evenodd" clip-rule="evenodd" d="M512 159.458C512 153.379 512.002 147.301 511.965 141.222C511.935 136.101 511.876 130.982 511.736 125.864C511.436 114.709 510.778 103.458 508.794 92.4269C506.782 81.2368 503.496 70.8223 498.318 60.655C493.228 50.6617 486.579 41.5172 478.646 33.5893C470.714 25.6614 461.567 19.0166 451.57 13.9296C441.392 8.75057 430.967 5.46608 419.764 3.45474C408.732 1.47386 397.478 0.817084 386.323 0.515726C381.201 0.377164 376.079 0.318756 370.956 0.287067C364.874 0.249786 358.793 0.252892 352.711 0.252892L282.095 0H229.28L159.914 0.252892C153.82 0.252892 147.726 0.249786 141.633 0.287067C136.499 0.318756 131.368 0.377164 126.236 0.515726C115.055 0.817084 103.776 1.47448 92.7173 3.45785C81.5 5.46856 71.0587 8.75181 60.8673 13.9271C50.8492 19.0148 41.6823 25.6602 33.734 33.5893C25.7868 41.5166 19.1253 50.6592 14.0258 60.6507C8.8338 70.8229 5.54186 81.2437 3.52495 92.4399C1.5391 103.466 0.881081 114.714 0.578481 125.864C0.44054 130.983 0.38089 136.102 0.349823 141.222C0.312541 147.301 0 154.853 0 160.931L0.00186406 229.337L0 282.717L0.315648 352.576C0.315648 358.663 0.313163 364.75 0.349823 370.836C0.38089 375.964 0.44054 381.09 0.579103 386.216C0.881081 397.385 1.54034 408.652 3.52805 419.698C5.54435 430.903 8.83566 441.332 14.0234 451.513C19.1234 461.52 25.7862 470.677 33.734 478.616C41.6817 486.555 50.8461 493.208 60.8623 498.303C71.06 503.489 81.5062 506.778 92.7304 508.791C103.784 510.775 115.059 511.433 126.236 511.735C131.368 511.873 136.5 511.932 141.633 511.963C147.727 512.001 153.82 511.998 159.914 511.998L229.907 512H282.853L352.711 511.998C358.793 511.998 364.874 512.001 370.956 511.963C376.079 511.932 381.201 511.873 386.323 511.735C397.482 511.433 408.74 510.774 419.777 508.789C430.973 506.775 441.394 503.487 451.566 498.305C461.565 493.211 470.713 486.556 478.646 478.616C486.578 470.678 493.226 461.523 498.316 451.517C503.497 441.332 506.783 430.897 508.796 419.685C510.778 408.643 511.436 397.381 511.737 386.216C511.876 381.089 511.935 375.963 511.965 370.836C512.003 364.75 512 358.663 512 352.576C512 352.576 511.996 283.951 511.996 282.717V229.281C511.996 228.37 512 159.458 512 159.458" fill="white"/>
</mask>
<g mask="url(#mask0_208_413)">
<rect width="512" height="512" fill="black"/>
<path d="M264.97 77.4653C262.236 80.0703 262.236 85.4466 262.236 96.1993V176.615C262.236 183.523 262.236 186.977 263.42 190.042C263.94 191.39 264.625 192.67 265.458 193.851C267.352 196.536 270.226 198.452 275.974 202.284L341.824 246.184C345.365 248.545 347.135 249.725 349.09 250.014C349.946 250.141 350.816 250.141 351.672 250.014C353.626 249.725 355.396 248.545 358.937 246.184L424.788 202.284C430.536 198.452 433.409 196.536 435.303 193.851C436.136 192.669 436.821 191.39 437.342 190.041C438.526 186.976 438.526 183.522 438.526 176.614V96.1995C438.526 85.4469 438.526 80.0706 435.792 77.4656C434.637 76.365 433.204 75.5986 431.648 75.248C427.964 74.4182 423.491 77.4004 414.544 83.3648L350.381 126.14L286.218 83.3646C277.271 77.4001 272.798 74.4179 269.113 75.2477C267.557 75.5983 266.125 76.3647 264.97 77.4653Z" fill="white"/>
<path d="M161.346 261.985C159.392 262.275 157.622 263.455 154.081 265.816L88.2302 309.716C82.4825 313.548 79.6086 315.464 77.7148 318.149C76.8817 319.331 76.197 320.61 75.6762 321.958C74.4924 325.024 74.4924 328.478 74.4924 335.386V415.8C74.4924 426.553 74.4924 431.929 77.2265 434.534C78.3815 435.635 79.8136 436.401 81.37 436.752C85.0541 437.582 89.5275 434.6 98.4742 428.635L162.637 385.86L226.8 428.635C235.747 434.6 240.221 437.582 243.905 436.752C245.461 436.402 246.893 435.635 248.048 434.535C250.782 431.93 250.782 426.553 250.782 415.801V335.385C250.782 328.477 250.782 325.023 249.598 321.958C249.078 320.61 248.393 319.33 247.56 318.149C245.666 315.464 242.792 313.548 237.045 309.716L171.194 265.815C167.653 263.455 165.883 262.275 163.928 261.985C163.072 261.859 162.202 261.859 161.346 261.985Z" fill="white"/>
<path d="M76.6068 77.4653C73.8728 80.0703 73.8728 85.4466 73.8728 96.1993V180.742C73.8728 185.923 73.8728 188.514 74.7606 190.813C75.1512 191.824 75.6648 192.784 76.2896 193.67C77.71 195.684 79.8654 197.12 84.1762 199.994L153.461 246.184C157.002 248.544 158.772 249.725 160.727 250.014C161.583 250.141 162.453 250.141 163.309 250.014C165.263 249.725 167.033 248.544 170.574 246.184L236.425 202.284C242.173 198.452 245.046 196.536 246.94 193.851C247.773 192.669 248.458 191.39 248.979 190.041C250.163 186.976 250.163 183.522 250.163 176.614L250.163 96.1995C250.163 85.4469 250.163 80.0706 247.429 77.4656C246.274 76.365 244.841 75.5986 243.285 75.248C239.601 74.4182 235.128 77.4004 226.181 83.3648L162.018 126.14L97.8546 83.3646C88.9079 77.4001 84.4345 74.4179 80.7504 75.2477C79.194 75.5983 77.7619 76.3647 76.6068 77.4653Z" fill="white" fill-opacity="0.5"/>
<path d="M349.498 261.985C347.543 262.275 345.773 263.455 342.232 265.816L276.382 309.716C270.634 313.548 267.76 315.464 265.866 318.149C265.033 319.331 264.349 320.61 263.828 321.958C262.644 325.024 262.644 328.478 262.644 335.386V415.8C262.644 426.553 262.644 431.929 265.378 434.534C266.533 435.635 267.965 436.401 269.522 436.752C273.206 437.582 277.679 434.6 286.626 428.635L350.789 385.86L414.952 428.635C423.899 434.6 428.372 437.582 432.056 436.752C433.613 436.402 435.045 435.635 436.2 434.535C438.934 431.93 438.934 426.553 438.934 415.801V335.385C438.934 328.477 438.934 325.023 437.75 321.958C437.229 320.61 436.545 319.33 435.711 318.149C433.818 315.464 430.944 313.548 425.196 309.716L359.345 265.815C355.805 263.455 354.034 262.275 352.08 261.985C351.224 261.859 350.354 261.859 349.498 261.985Z" fill="white" fill-opacity="0.5"/>
</g>
</g>
<defs>
<clipPath id="clip0_208_413">
<rect width="512" height="512" fill="white"/>
</clipPath>
</defs>
</svg>
