<svg enable-background="new 0 0 512 512" viewBox="0 0 512 512" xmlns="http://www.w3.org/2000/svg"><path d="m0 0h512v512h-512z" fill="#262626"/><g fill="#fff"><path d="m413.83 204.48-26.34-26.34-51.57 51.57-51.57-51.57-26.34 26.34 51.57 51.57-51.57 51.58 26.34 26.34 51.57-51.58 51.57 51.58 26.34-26.34-51.57-51.58z"/><path d="m212.1 280.44c-7.7 11.29-20.48 18.69-34.93 18.69-23.47 0-42.57-19.53-42.57-43.53s19.1-43.53 42.57-43.53c14.45 0 27.23 7.41 34.93 18.69l26.58-27.18c-14.64-18.08-36.76-29.6-61.51-29.6-44.08 0-79.82 36.54-79.82 81.61s35.74 81.61 79.82 81.61c24.75 0 46.87-11.52 61.51-29.6z"/><path d="m111 399h-62v-287h62v29h-33v229h33z"/><path d="m400 112h62v287h-62v-29h33v-229h-33z"/></g></svg>