<svg width="144" height="144" viewBox="0 0 144 144" fill="none" xmlns="http://www.w3.org/2000/svg">
<g clip-path="url(#clip0_210_442)">
<path d="M74.182 28.5726C73.5169 29.2063 73.5169 30.514 73.5169 33.1295V52.69C73.5169 54.3703 73.5169 55.2105 73.8049 55.9561C73.9315 56.2841 74.0981 56.5953 74.3008 56.8827C74.7614 57.5358 75.4605 58.0019 76.8586 58.9339L92.8763 69.6123C93.7375 70.1865 94.1681 70.4736 94.6435 70.544C94.8517 70.5748 95.0634 70.5748 95.2716 70.544C95.747 70.4736 96.1776 70.1865 97.0388 69.6124L113.057 58.9339C114.455 58.0018 115.154 57.5358 115.614 56.8826C115.817 56.5952 115.984 56.284 116.11 55.956C116.398 55.2104 116.398 54.3703 116.398 52.69V33.1296C116.398 30.5141 116.398 29.2064 115.733 28.5727C115.452 28.305 115.104 28.1186 114.725 28.0333C113.829 27.8314 112.741 28.5568 110.565 30.0077L94.9576 40.4124L79.3503 30.0076C77.1741 28.5568 76.086 27.8314 75.1898 28.0332C74.8113 28.1185 74.4629 28.3049 74.182 28.5726Z" fill="white"/>
<path d="M48.9762 73.4559C48.5008 73.5263 48.0702 73.8134 47.209 74.3876L31.1912 85.0661C29.7931 85.9982 29.0941 86.4642 28.6334 87.1174C28.4308 87.4047 28.2642 87.7159 28.1375 88.0439C27.8496 88.7895 27.8496 89.6297 27.8496 91.31V110.87C27.8496 113.486 27.8496 114.794 28.5146 115.427C28.7956 115.695 29.1439 115.881 29.5225 115.967C30.4187 116.169 31.5068 115.443 33.683 113.992L49.2903 103.588L64.8975 113.992C67.0737 115.443 68.1618 116.169 69.058 115.967C69.4366 115.881 69.7849 115.695 70.0659 115.427C70.7309 114.794 70.7309 113.486 70.7309 110.87V91.3099C70.7309 89.6296 70.7309 88.7895 70.443 88.0439C70.3163 87.7158 70.1497 87.4046 69.9471 87.1173C69.4864 86.4641 68.7874 85.9981 67.3893 85.0661L51.3716 74.3875C50.5103 73.8134 50.0797 73.5263 49.6043 73.4559C49.3961 73.4251 49.1844 73.4251 48.9762 73.4559Z" fill="white"/>
<path d="M28.3638 28.5726C27.6987 29.2063 27.6987 30.514 27.6987 33.1295V53.6941C27.6987 54.9543 27.6987 55.5844 27.9147 56.1436C28.0097 56.3896 28.1346 56.623 28.2866 56.8386C28.6321 57.3284 29.1564 57.678 30.205 58.377L47.0581 69.6123C47.9193 70.1865 48.3499 70.4736 48.8253 70.544C49.0336 70.5748 49.2452 70.5748 49.4534 70.544C49.9288 70.4736 50.3594 70.1865 51.2207 69.6123L67.2384 58.9339C68.6365 58.0018 69.3355 57.5358 69.7962 56.8826C69.9989 56.5952 70.1654 56.284 70.2921 55.956C70.58 55.2104 70.58 54.3703 70.58 52.69L70.58 33.1296C70.58 30.5141 70.58 29.2064 69.915 28.5727C69.634 28.305 69.2857 28.1186 68.9071 28.0333C68.011 27.8314 66.9229 28.5568 64.7466 30.0077L49.1394 40.4124L33.5321 30.0076C31.3559 28.5568 30.2678 27.8314 29.3717 28.0332C28.9931 28.1185 28.6447 28.3049 28.3638 28.5726Z" fill="white" fill-opacity="0.5"/>
<path d="M94.7426 73.4559C94.2672 73.5263 93.8366 73.8134 92.9754 74.3876L76.9576 85.0661C75.5596 85.9982 74.8605 86.4642 74.3999 87.1174C74.1972 87.4047 74.0307 87.7159 73.904 88.0439C73.616 88.7895 73.616 89.6297 73.616 91.31V110.87C73.616 113.486 73.616 114.794 74.2811 115.427C74.562 115.695 74.9104 115.881 75.289 115.967C76.1851 116.169 77.2732 115.443 79.4494 113.992L95.0567 103.588L110.664 113.992C112.84 115.443 113.928 116.169 114.824 115.967C115.203 115.881 115.551 115.695 115.832 115.427C116.497 114.794 116.497 113.486 116.497 110.87V91.3099C116.497 89.6296 116.497 88.7895 116.209 88.0439C116.083 87.7158 115.916 87.4046 115.713 87.1173C115.253 86.4641 114.554 85.9981 113.156 85.066L97.138 74.3875C96.2767 73.8134 95.8461 73.5263 95.3707 73.4559C95.1625 73.4251 94.9509 73.4251 94.7426 73.4559Z" fill="white" fill-opacity="0.5"/>
</g>
<defs>
<clipPath id="clip0_210_442">
<rect width="144" height="144" fill="white"/>
</clipPath>
</defs>
</svg>
